# xmcd
#
# Track frame offsets: 
#        150
#        10675
#        23695
#        35726
#        47623
#        60909
#        72788
#        84892
#        101118
#        116151
#        135316
#        149233
#        172063
#        187387
#        204808
#
# Disc length: 2980 seconds
#
# Revision: 0
# Processed by: cddbd v1.5.2PL0 Copyright (c) Steve Scherf et al.
# Submitted via: ExactAudioCopy v0.95b3
#
DISCID=cf0ba20f
DTITLE=Marshall Crenshaw  - The Definitive Pop Collection - CD1 - FLAC
DYEAR=1900
DGENRE=
TTITLE0=Something's Gonna Happen (Shake 12'' Single Version)
TTITLE1=Someday, Someway
TTITLE2=There She Goes Again
TTITLE3=Cynical Girl
TTITLE4=Mary Anne
TTITLE5=Not For Me
TTITLE6=You're My Favorite Waste Of Time (Single Version)
TTITLE7=Monday Morning Rock
TTITLE8=Whenever You're On My Mind
TTITLE9=Our Town
TTITLE10=For Her Love
TTITLE11=One Day With You
TTITLE12=I'm Sorry (But So Is Brenda Lee)
TTITLE13=Blues Is King
TTITLE14=Like A Vague Memory
EXTD=
EXTT0=
EXTT1=
EXTT2=
EXTT3=
EXTT4=
EXTT5=
EXTT6=
EXTT7=
EXTT8=
EXTT9=
EXTT10=
EXTT11=
EXTT12=
EXTT13=
EXTT14=
PLAYORDER=
